<?xml version="1.0" standalone="no"?>
<svg viewBox="0 0 200 200" xmlns="http://www.w3.org/2000/svg">
  <path fill="#F1C21B" d="M45.4,-70C55.5,-64.2,57.9,-45.9,64.6,-29.9C71.3,-13.9,82.1,-0.3,79.7,11C77.3,22.2,61.7,31,49.6,40.6C37.6,50.1,29.1,60.3,17.4,67.6C5.7,74.8,-9.4,79.1,-19.6,73.1C-29.7,67.2,-35,51,-46.8,39.4C-58.5,27.8,-76.8,20.7,-83.3,8.9C-89.9,-3,-84.8,-19.7,-75.8,-32.5C-66.7,-45.3,-53.6,-54.2,-40.3,-58.6C-27.1,-62.9,-13.5,-62.7,2.1,-65.9C17.7,-69.2,35.4,-75.8,45.4,-70Z" transform="translate(100 100)" />
</svg>
