<svg width="361" height="59" viewBox="0 0 361 59" fill="none" xmlns="http://www.w3.org/2000/svg">
<g filter="url(#filter0_d_5_53)">
<path d="M44.2727 7.45454V54H33.7273L16.9091 29.5455H16.6364V54H4V7.45454H14.7273L31.2727 31.8182H31.6364V7.45454H44.2727Z" fill="url(#paint0_linear_5_53)"/>
<path d="M60.1591 54.5455C57.9318 54.5455 55.9621 54.1818 54.25 53.4545C52.553 52.7121 51.2197 51.5909 50.25 50.0909C49.2803 48.5909 48.7955 46.6818 48.7955 44.3636C48.7955 42.4545 49.1212 40.8258 49.7727 39.4773C50.4242 38.1136 51.3333 37 52.5 36.1364C53.6667 35.2727 55.0227 34.6136 56.5682 34.1591C58.1288 33.7045 59.8106 33.4091 61.6136 33.2727C63.5682 33.1212 65.1364 32.9394 66.3182 32.7273C67.5152 32.5 68.3788 32.1894 68.9091 31.7955C69.4394 31.3864 69.7045 30.8485 69.7045 30.1818V30.0909C69.7045 29.1818 69.3561 28.4848 68.6591 28C67.9621 27.5152 67.0682 27.2727 65.9773 27.2727C64.7803 27.2727 63.803 27.5379 63.0455 28.0682C62.303 28.5833 61.8561 29.3788 61.7045 30.4545H50.1591C50.3106 28.3333 50.9849 26.3788 52.1818 24.5909C53.3939 22.7879 55.1591 21.3485 57.4773 20.2727C59.7955 19.1818 62.6894 18.6364 66.1591 18.6364C68.6591 18.6364 70.9015 18.9318 72.8864 19.5227C74.8712 20.0985 76.5606 20.9091 77.9545 21.9545C79.3485 22.9848 80.4091 24.197 81.1364 25.5909C81.8788 26.9697 82.25 28.4697 82.25 30.0909V54H70.5227V49.0909H70.25C69.553 50.3939 68.7045 51.447 67.7045 52.25C66.7197 53.053 65.5909 53.6364 64.3182 54C63.0606 54.3636 61.6742 54.5455 60.1591 54.5455ZM64.25 46.6364C65.2045 46.6364 66.0985 46.4394 66.9318 46.0455C67.7803 45.6515 68.4697 45.0833 69 44.3409C69.5303 43.5985 69.7955 42.697 69.7955 41.6364V38.7273C69.4621 38.8636 69.1061 38.9924 68.7273 39.1136C68.3636 39.2348 67.9697 39.3485 67.5455 39.4545C67.1364 39.5606 66.697 39.6591 66.2273 39.75C65.7727 39.8409 65.2955 39.9242 64.7955 40C63.8258 40.1515 63.0303 40.4015 62.4091 40.75C61.803 41.0833 61.3485 41.5 61.0455 42C60.7576 42.4848 60.6136 43.0303 60.6136 43.6364C60.6136 44.6061 60.9545 45.3485 61.6364 45.8636C62.3182 46.3788 63.1894 46.6364 64.25 46.6364Z" fill="url(#paint1_linear_5_53)"/>
<path d="M109.062 19.0909V28.1818H86.0625V19.0909H109.062ZM90.517 10.7273H103.062V42.7727C103.062 43.2576 103.146 43.6667 103.312 44C103.479 44.3182 103.737 44.5606 104.085 44.7273C104.434 44.8788 104.881 44.9545 105.426 44.9545C105.805 44.9545 106.244 44.9091 106.744 44.8182C107.259 44.7273 107.638 44.6515 107.881 44.5909L109.699 53.4091C109.138 53.5758 108.335 53.7803 107.29 54.0227C106.259 54.2652 105.032 54.4242 103.608 54.5C100.729 54.6515 98.3125 54.3561 96.358 53.6136C94.4034 52.8561 92.9337 51.6667 91.9489 50.0455C90.964 48.4242 90.4867 46.3939 90.517 43.9545V10.7273Z" fill="url(#paint2_linear_5_53)"/>
<path d="M127.477 34.3636V54H114.932V7.45454H127.023V25.7273H127.386C128.174 23.5 129.485 21.7652 131.318 20.5227C133.152 19.2652 135.356 18.6364 137.932 18.6364C140.402 18.6364 142.545 19.197 144.364 20.3182C146.197 21.4394 147.614 22.9848 148.614 24.9545C149.629 26.9242 150.129 29.1818 150.114 31.7273V54H137.568V34.3636C137.583 32.6364 137.152 31.2803 136.273 30.2955C135.409 29.3106 134.174 28.8182 132.568 28.8182C131.553 28.8182 130.659 29.0455 129.886 29.5C129.129 29.9394 128.538 30.5758 128.114 31.4091C127.705 32.2273 127.492 33.2121 127.477 34.3636Z" fill="url(#paint3_linear_5_53)"/>
<path d="M166.034 54.5455C163.807 54.5455 161.837 54.1818 160.125 53.4545C158.428 52.7121 157.095 51.5909 156.125 50.0909C155.155 48.5909 154.67 46.6818 154.67 44.3636C154.67 42.4545 154.996 40.8258 155.648 39.4773C156.299 38.1136 157.208 37 158.375 36.1364C159.542 35.2727 160.898 34.6136 162.443 34.1591C164.004 33.7045 165.686 33.4091 167.489 33.2727C169.443 33.1212 171.011 32.9394 172.193 32.7273C173.39 32.5 174.254 32.1894 174.784 31.7955C175.314 31.3864 175.58 30.8485 175.58 30.1818V30.0909C175.58 29.1818 175.231 28.4848 174.534 28C173.837 27.5152 172.943 27.2727 171.852 27.2727C170.655 27.2727 169.678 27.5379 168.92 28.0682C168.178 28.5833 167.731 29.3788 167.58 30.4545H156.034C156.186 28.3333 156.86 26.3788 158.057 24.5909C159.269 22.7879 161.034 21.3485 163.352 20.2727C165.67 19.1818 168.564 18.6364 172.034 18.6364C174.534 18.6364 176.777 18.9318 178.761 19.5227C180.746 20.0985 182.436 20.9091 183.83 21.9545C185.223 22.9848 186.284 24.197 187.011 25.5909C187.754 26.9697 188.125 28.4697 188.125 30.0909V54H176.398V49.0909H176.125C175.428 50.3939 174.58 51.447 173.58 52.25C172.595 53.053 171.466 53.6364 170.193 54C168.936 54.3636 167.549 54.5455 166.034 54.5455ZM170.125 46.6364C171.08 46.6364 171.973 46.4394 172.807 46.0455C173.655 45.6515 174.345 45.0833 174.875 44.3409C175.405 43.5985 175.67 42.697 175.67 41.6364V38.7273C175.337 38.8636 174.981 38.9924 174.602 39.1136C174.239 39.2348 173.845 39.3485 173.42 39.4545C173.011 39.5606 172.572 39.6591 172.102 39.75C171.648 39.8409 171.17 39.9242 170.67 40C169.701 40.1515 168.905 40.4015 168.284 40.75C167.678 41.0833 167.223 41.5 166.92 42C166.633 42.4848 166.489 43.0303 166.489 43.6364C166.489 44.6061 166.83 45.3485 167.511 45.8636C168.193 46.3788 169.064 46.6364 170.125 46.6364Z" fill="url(#paint4_linear_5_53)"/>
<path d="M206.665 34.3636V54H194.119V19.0909H206.028V25.7273H206.392C207.15 23.5152 208.483 21.7803 210.392 20.5227C212.316 19.2652 214.559 18.6364 217.119 18.6364C219.589 18.6364 221.733 19.2045 223.551 20.3409C225.384 21.4621 226.801 23.0076 227.801 24.9773C228.816 26.947 229.316 29.197 229.301 31.7273V54H216.756V34.3636C216.771 32.6364 216.331 31.2803 215.438 30.2955C214.559 29.3106 213.331 28.8182 211.756 28.8182C210.725 28.8182 209.824 29.0455 209.051 29.5C208.294 29.9394 207.71 30.5758 207.301 31.4091C206.892 32.2273 206.68 33.2121 206.665 34.3636Z" fill="url(#paint5_linear_5_53)"/>
<path d="M235.494 54V19.0909H248.04V54H235.494ZM241.767 15.4545C240.07 15.4545 238.616 14.8939 237.403 13.7727C236.191 12.6515 235.585 11.303 235.585 9.72727C235.585 8.15151 236.191 6.80303 237.403 5.68182C238.616 4.56061 240.07 4 241.767 4C243.479 4 244.934 4.56061 246.131 5.68182C247.343 6.80303 247.949 8.15151 247.949 9.72727C247.949 11.303 247.343 12.6515 246.131 13.7727C244.934 14.8939 243.479 15.4545 241.767 15.4545Z" fill="url(#paint6_linear_5_53)"/>
<path d="M271.159 54.6364C267.432 54.6364 264.22 53.9242 261.523 52.5C258.841 51.0606 256.773 49 255.318 46.3182C253.879 43.6212 253.159 40.3939 253.159 36.6364C253.159 33.0303 253.886 29.8788 255.341 27.1818C256.795 24.4848 258.848 22.3864 261.5 20.8864C264.152 19.3864 267.28 18.6364 270.886 18.6364C273.523 18.6364 275.909 19.0455 278.045 19.8636C280.182 20.6818 282.008 21.8712 283.523 23.4318C285.038 24.9773 286.205 26.8561 287.023 29.0682C287.841 31.2803 288.25 33.7727 288.25 36.5455V39.4545H257.068V32.5455H276.705C276.689 31.5455 276.432 30.6667 275.932 29.9091C275.447 29.1364 274.788 28.5379 273.955 28.1136C273.136 27.6742 272.205 27.4545 271.159 27.4545C270.144 27.4545 269.212 27.6742 268.364 28.1136C267.515 28.5379 266.833 29.1288 266.318 29.8864C265.818 30.6439 265.553 31.5303 265.523 32.5455V40C265.523 41.1212 265.758 42.1212 266.227 43C266.697 43.8788 267.371 44.5682 268.25 45.0682C269.129 45.5682 270.189 45.8182 271.432 45.8182C272.295 45.8182 273.083 45.697 273.795 45.4545C274.523 45.2121 275.144 44.8636 275.659 44.4091C276.174 43.9394 276.553 43.3788 276.795 42.7273H288.25C287.856 45.1515 286.924 47.2576 285.455 49.0455C283.985 50.8182 282.038 52.197 279.614 53.1818C277.205 54.1515 274.386 54.6364 271.159 54.6364Z" fill="url(#paint7_linear_5_53)"/>
<path d="M305.915 7.45454V54H293.369V7.45454H305.915Z" fill="url(#paint8_linear_5_53)"/>
<path d="M327.672 23.8431C326.887 24.0649 326.169 24.4752 325.579 25.0382C324.989 25.6013 324.546 26.3 324.288 27.0736L317 48.9375L318.148 50.0852L329.875 38.3579C329.641 37.8688 329.5 37.3282 329.5 36.7501C329.5 34.679 331.179 33.0001 333.25 33.0001C335.321 33.0001 337 34.679 337 36.7501C337 38.8212 335.321 40.5001 333.25 40.5001C332.672 40.5001 332.131 40.3587 331.642 40.1251L319.915 51.8523L321.062 53L342.926 45.7118C343.7 45.4539 344.399 45.0108 344.962 44.4211C345.525 43.8313 345.935 43.1128 346.157 42.3282L349.5 30.5001L339.5 20.5002L327.672 23.8431ZM355.901 18.7947L351.205 14.0986C349.74 12.6338 347.365 12.6338 345.9 14.0986L341.482 18.5166L351.483 28.5181L355.901 24.1001C357.366 22.6353 357.366 20.2603 355.901 18.7947Z" fill="url(#paint9_linear_5_53)"/>
</g>
<defs>
<filter id="filter0_d_5_53" x="0" y="0" width="361" height="58.6364" filterUnits="userSpaceOnUse" color-interpolation-filters="sRGB">
<feFlood flood-opacity="0" result="BackgroundImageFix"/>
<feColorMatrix in="SourceAlpha" type="matrix" values="0 0 0 0 0 0 0 0 0 0 0 0 0 0 0 0 0 0 127 0" result="hardAlpha"/>
<feOffset/>
<feGaussianBlur stdDeviation="2"/>
<feComposite in2="hardAlpha" operator="out"/>
<feColorMatrix type="matrix" values="0 0 0 0 0 0 0 0 0 0 0 0 0 0 0 0 0 0 0.25 0"/>
<feBlend mode="normal" in2="BackgroundImageFix" result="effect1_dropShadow_5_53"/>
<feBlend mode="normal" in="SourceGraphic" in2="effect1_dropShadow_5_53" result="shape"/>
</filter>
<linearGradient id="paint0_linear_5_53" x1="180.5" y1="4" x2="180.5" y2="54.6364" gradientUnits="userSpaceOnUse">
<stop stop-color="#247D21"/>
<stop offset="0.482292" stop-color="#2BC026"/>
<stop offset="1" stop-color="#0A7B06"/>
</linearGradient>
<linearGradient id="paint1_linear_5_53" x1="180.5" y1="4" x2="180.5" y2="54.6364" gradientUnits="userSpaceOnUse">
<stop stop-color="#247D21"/>
<stop offset="0.482292" stop-color="#2BC026"/>
<stop offset="1" stop-color="#0A7B06"/>
</linearGradient>
<linearGradient id="paint2_linear_5_53" x1="180.5" y1="4" x2="180.5" y2="54.6364" gradientUnits="userSpaceOnUse">
<stop stop-color="#247D21"/>
<stop offset="0.482292" stop-color="#2BC026"/>
<stop offset="1" stop-color="#0A7B06"/>
</linearGradient>
<linearGradient id="paint3_linear_5_53" x1="180.5" y1="4" x2="180.5" y2="54.6364" gradientUnits="userSpaceOnUse">
<stop stop-color="#247D21"/>
<stop offset="0.482292" stop-color="#2BC026"/>
<stop offset="1" stop-color="#0A7B06"/>
</linearGradient>
<linearGradient id="paint4_linear_5_53" x1="180.5" y1="4" x2="180.5" y2="54.6364" gradientUnits="userSpaceOnUse">
<stop stop-color="#247D21"/>
<stop offset="0.482292" stop-color="#2BC026"/>
<stop offset="1" stop-color="#0A7B06"/>
</linearGradient>
<linearGradient id="paint5_linear_5_53" x1="180.5" y1="4" x2="180.5" y2="54.6364" gradientUnits="userSpaceOnUse">
<stop stop-color="#247D21"/>
<stop offset="0.482292" stop-color="#2BC026"/>
<stop offset="1" stop-color="#0A7B06"/>
</linearGradient>
<linearGradient id="paint6_linear_5_53" x1="180.5" y1="4" x2="180.5" y2="54.6364" gradientUnits="userSpaceOnUse">
<stop stop-color="#247D21"/>
<stop offset="0.482292" stop-color="#2BC026"/>
<stop offset="1" stop-color="#0A7B06"/>
</linearGradient>
<linearGradient id="paint7_linear_5_53" x1="180.5" y1="4" x2="180.5" y2="54.6364" gradientUnits="userSpaceOnUse">
<stop stop-color="#247D21"/>
<stop offset="0.482292" stop-color="#2BC026"/>
<stop offset="1" stop-color="#0A7B06"/>
</linearGradient>
<linearGradient id="paint8_linear_5_53" x1="180.5" y1="4" x2="180.5" y2="54.6364" gradientUnits="userSpaceOnUse">
<stop stop-color="#247D21"/>
<stop offset="0.482292" stop-color="#2BC026"/>
<stop offset="1" stop-color="#0A7B06"/>
</linearGradient>
<linearGradient id="paint9_linear_5_53" x1="323.829" y1="7.14648" x2="397" y2="45.6829" gradientUnits="userSpaceOnUse">
<stop offset="0.0708332" stop-color="#D1A10C"/>
<stop offset="0.3" stop-color="#F2B804"/>
<stop offset="0.695833" stop-color="#F8CE4E"/>
<stop offset="1" stop-color="#A37D0A"/>
</linearGradient>
</defs>
</svg>
