<svg width="361" height="59" viewBox="0 0 361 59" fill="none" xmlns="http://www.w3.org/2000/svg">
<g filter="url(#filter0_d_5_51)">
<path d="M44.2727 3.45454V50H33.7273L16.9091 25.5455H16.6364V50H4V3.45454H14.7273L31.2727 27.8182H31.6364V3.45454H44.2727Z" fill="url(#paint0_linear_5_51)"/>
<path d="M60.1591 50.5455C57.9318 50.5455 55.9621 50.1818 54.25 49.4545C52.553 48.7121 51.2197 47.5909 50.25 46.0909C49.2803 44.5909 48.7955 42.6818 48.7955 40.3636C48.7955 38.4545 49.1212 36.8258 49.7727 35.4773C50.4242 34.1136 51.3333 33 52.5 32.1364C53.6667 31.2727 55.0227 30.6136 56.5682 30.1591C58.1288 29.7045 59.8106 29.4091 61.6136 29.2727C63.5682 29.1212 65.1364 28.9394 66.3182 28.7273C67.5152 28.5 68.3788 28.1894 68.9091 27.7955C69.4394 27.3864 69.7045 26.8485 69.7045 26.1818V26.0909C69.7045 25.1818 69.3561 24.4848 68.6591 24C67.9621 23.5152 67.0682 23.2727 65.9773 23.2727C64.7803 23.2727 63.803 23.5379 63.0455 24.0682C62.303 24.5833 61.8561 25.3788 61.7045 26.4545H50.1591C50.3106 24.3333 50.9849 22.3788 52.1818 20.5909C53.3939 18.7879 55.1591 17.3485 57.4773 16.2727C59.7955 15.1818 62.6894 14.6364 66.1591 14.6364C68.6591 14.6364 70.9015 14.9318 72.8864 15.5227C74.8712 16.0985 76.5606 16.9091 77.9545 17.9545C79.3485 18.9848 80.4091 20.197 81.1364 21.5909C81.8788 22.9697 82.25 24.4697 82.25 26.0909V50H70.5227V45.0909H70.25C69.553 46.3939 68.7045 47.447 67.7045 48.25C66.7197 49.053 65.5909 49.6364 64.3182 50C63.0606 50.3636 61.6742 50.5455 60.1591 50.5455ZM64.25 42.6364C65.2045 42.6364 66.0985 42.4394 66.9318 42.0455C67.7803 41.6515 68.4697 41.0833 69 40.3409C69.5303 39.5985 69.7955 38.697 69.7955 37.6364V34.7273C69.4621 34.8636 69.1061 34.9924 68.7273 35.1136C68.3636 35.2348 67.9697 35.3485 67.5455 35.4545C67.1364 35.5606 66.697 35.6591 66.2273 35.75C65.7727 35.8409 65.2955 35.9242 64.7955 36C63.8258 36.1515 63.0303 36.4015 62.4091 36.75C61.803 37.0833 61.3485 37.5 61.0455 38C60.7576 38.4848 60.6136 39.0303 60.6136 39.6364C60.6136 40.6061 60.9545 41.3485 61.6364 41.8636C62.3182 42.3788 63.1894 42.6364 64.25 42.6364Z" fill="url(#paint1_linear_5_51)"/>
<path d="M109.062 15.0909V24.1818H86.0625V15.0909H109.062ZM90.517 6.72727H103.062V38.7727C103.062 39.2576 103.146 39.6667 103.312 40C103.479 40.3182 103.737 40.5606 104.085 40.7273C104.434 40.8788 104.881 40.9545 105.426 40.9545C105.805 40.9545 106.244 40.9091 106.744 40.8182C107.259 40.7273 107.638 40.6515 107.881 40.5909L109.699 49.4091C109.138 49.5758 108.335 49.7803 107.29 50.0227C106.259 50.2652 105.032 50.4242 103.608 50.5C100.729 50.6515 98.3125 50.3561 96.358 49.6136C94.4034 48.8561 92.9337 47.6667 91.9489 46.0455C90.964 44.4242 90.4867 42.3939 90.517 39.9545V6.72727Z" fill="url(#paint2_linear_5_51)"/>
<path d="M127.477 30.3636V50H114.932V3.45454H127.023V21.7273H127.386C128.174 19.5 129.485 17.7652 131.318 16.5227C133.152 15.2652 135.356 14.6364 137.932 14.6364C140.402 14.6364 142.545 15.197 144.364 16.3182C146.197 17.4394 147.614 18.9848 148.614 20.9545C149.629 22.9242 150.129 25.1818 150.114 27.7273V50H137.568V30.3636C137.583 28.6364 137.152 27.2803 136.273 26.2955C135.409 25.3106 134.174 24.8182 132.568 24.8182C131.553 24.8182 130.659 25.0455 129.886 25.5C129.129 25.9394 128.538 26.5758 128.114 27.4091C127.705 28.2273 127.492 29.2121 127.477 30.3636Z" fill="url(#paint3_linear_5_51)"/>
<path d="M166.034 50.5455C163.807 50.5455 161.837 50.1818 160.125 49.4545C158.428 48.7121 157.095 47.5909 156.125 46.0909C155.155 44.5909 154.67 42.6818 154.67 40.3636C154.67 38.4545 154.996 36.8258 155.648 35.4773C156.299 34.1136 157.208 33 158.375 32.1364C159.542 31.2727 160.898 30.6136 162.443 30.1591C164.004 29.7045 165.686 29.4091 167.489 29.2727C169.443 29.1212 171.011 28.9394 172.193 28.7273C173.39 28.5 174.254 28.1894 174.784 27.7955C175.314 27.3864 175.58 26.8485 175.58 26.1818V26.0909C175.58 25.1818 175.231 24.4848 174.534 24C173.837 23.5152 172.943 23.2727 171.852 23.2727C170.655 23.2727 169.678 23.5379 168.92 24.0682C168.178 24.5833 167.731 25.3788 167.58 26.4545H156.034C156.186 24.3333 156.86 22.3788 158.057 20.5909C159.269 18.7879 161.034 17.3485 163.352 16.2727C165.67 15.1818 168.564 14.6364 172.034 14.6364C174.534 14.6364 176.777 14.9318 178.761 15.5227C180.746 16.0985 182.436 16.9091 183.83 17.9545C185.223 18.9848 186.284 20.197 187.011 21.5909C187.754 22.9697 188.125 24.4697 188.125 26.0909V50H176.398V45.0909H176.125C175.428 46.3939 174.58 47.447 173.58 48.25C172.595 49.053 171.466 49.6364 170.193 50C168.936 50.3636 167.549 50.5455 166.034 50.5455ZM170.125 42.6364C171.08 42.6364 171.973 42.4394 172.807 42.0455C173.655 41.6515 174.345 41.0833 174.875 40.3409C175.405 39.5985 175.67 38.697 175.67 37.6364V34.7273C175.337 34.8636 174.981 34.9924 174.602 35.1136C174.239 35.2348 173.845 35.3485 173.42 35.4545C173.011 35.5606 172.572 35.6591 172.102 35.75C171.648 35.8409 171.17 35.9242 170.67 36C169.701 36.1515 168.905 36.4015 168.284 36.75C167.678 37.0833 167.223 37.5 166.92 38C166.633 38.4848 166.489 39.0303 166.489 39.6364C166.489 40.6061 166.83 41.3485 167.511 41.8636C168.193 42.3788 169.064 42.6364 170.125 42.6364Z" fill="url(#paint4_linear_5_51)"/>
<path d="M206.665 30.3636V50H194.119V15.0909H206.028V21.7273H206.392C207.15 19.5152 208.483 17.7803 210.392 16.5227C212.316 15.2652 214.559 14.6364 217.119 14.6364C219.589 14.6364 221.733 15.2045 223.551 16.3409C225.384 17.4621 226.801 19.0076 227.801 20.9773C228.816 22.947 229.316 25.197 229.301 27.7273V50H216.756V30.3636C216.771 28.6364 216.331 27.2803 215.438 26.2955C214.559 25.3106 213.331 24.8182 211.756 24.8182C210.725 24.8182 209.824 25.0455 209.051 25.5C208.294 25.9394 207.71 26.5758 207.301 27.4091C206.892 28.2273 206.68 29.2121 206.665 30.3636Z" fill="url(#paint5_linear_5_51)"/>
<path d="M235.494 50V15.0909H248.04V50H235.494ZM241.767 11.4545C240.07 11.4545 238.616 10.8939 237.403 9.77273C236.191 8.65151 235.585 7.30303 235.585 5.72727C235.585 4.15151 236.191 2.80303 237.403 1.68182C238.616 0.560605 240.07 0 241.767 0C243.479 0 244.934 0.560605 246.131 1.68182C247.343 2.80303 247.949 4.15151 247.949 5.72727C247.949 7.30303 247.343 8.65151 246.131 9.77273C244.934 10.8939 243.479 11.4545 241.767 11.4545Z" fill="url(#paint6_linear_5_51)"/>
<path d="M271.159 50.6364C267.432 50.6364 264.22 49.9242 261.523 48.5C258.841 47.0606 256.773 45 255.318 42.3182C253.879 39.6212 253.159 36.3939 253.159 32.6364C253.159 29.0303 253.886 25.8788 255.341 23.1818C256.795 20.4848 258.848 18.3864 261.5 16.8864C264.152 15.3864 267.28 14.6364 270.886 14.6364C273.523 14.6364 275.909 15.0455 278.045 15.8636C280.182 16.6818 282.008 17.8712 283.523 19.4318C285.038 20.9773 286.205 22.8561 287.023 25.0682C287.841 27.2803 288.25 29.7727 288.25 32.5455V35.4545H257.068V28.5455H276.705C276.689 27.5455 276.432 26.6667 275.932 25.9091C275.447 25.1364 274.788 24.5379 273.955 24.1136C273.136 23.6742 272.205 23.4545 271.159 23.4545C270.144 23.4545 269.212 23.6742 268.364 24.1136C267.515 24.5379 266.833 25.1288 266.318 25.8864C265.818 26.6439 265.553 27.5303 265.523 28.5455V36C265.523 37.1212 265.758 38.1212 266.227 39C266.697 39.8788 267.371 40.5682 268.25 41.0682C269.129 41.5682 270.189 41.8182 271.432 41.8182C272.295 41.8182 273.083 41.697 273.795 41.4545C274.523 41.2121 275.144 40.8636 275.659 40.4091C276.174 39.9394 276.553 39.3788 276.795 38.7273H288.25C287.856 41.1515 286.924 43.2576 285.455 45.0455C283.985 46.8182 282.038 48.197 279.614 49.1818C277.205 50.1515 274.386 50.6364 271.159 50.6364Z" fill="url(#paint7_linear_5_51)"/>
<path d="M305.915 3.45454V50H293.369V3.45454H305.915Z" fill="url(#paint8_linear_5_51)"/>
<path d="M327.672 19.8431C326.887 20.0649 326.169 20.4752 325.579 21.0382C324.989 21.6013 324.546 22.3 324.288 23.0736L317 44.9375L318.148 46.0852L329.875 34.3579C329.641 33.8688 329.5 33.3282 329.5 32.7501C329.5 30.679 331.179 29.0001 333.25 29.0001C335.321 29.0001 337 30.679 337 32.7501C337 34.8212 335.321 36.5001 333.25 36.5001C332.672 36.5001 332.131 36.3587 331.642 36.1251L319.915 47.8523L321.062 49L342.926 41.7118C343.7 41.4539 344.399 41.0108 344.962 40.4211C345.525 39.8313 345.935 39.1128 346.157 38.3282L349.5 26.5001L339.5 16.5002L327.672 19.8431ZM355.901 14.7947L351.205 10.0986C349.74 8.63379 347.365 8.63379 345.9 10.0986L341.482 14.5166L351.483 24.5181L355.901 20.1001C357.366 18.6353 357.366 16.2603 355.901 14.7947Z" fill="url(#paint9_linear_5_51)"/>
</g>
<defs>
<filter id="filter0_d_5_51" x="0" y="0" width="361" height="58.6364" filterUnits="userSpaceOnUse" color-interpolation-filters="sRGB">
<feFlood flood-opacity="0" result="BackgroundImageFix"/>
<feColorMatrix in="SourceAlpha" type="matrix" values="0 0 0 0 0 0 0 0 0 0 0 0 0 0 0 0 0 0 127 0" result="hardAlpha"/>
<feOffset dy="4"/>
<feGaussianBlur stdDeviation="2"/>
<feComposite in2="hardAlpha" operator="out"/>
<feColorMatrix type="matrix" values="0 0 0 0 0 0 0 0 0 0 0 0 0 0 0 0 0 0 0.25 0"/>
<feBlend mode="normal" in2="BackgroundImageFix" result="effect1_dropShadow_5_51"/>
<feBlend mode="normal" in="SourceGraphic" in2="effect1_dropShadow_5_51" result="shape"/>
</filter>
<linearGradient id="paint0_linear_5_51" x1="180.5" y1="0" x2="180.5" y2="50.6364" gradientUnits="userSpaceOnUse">
<stop stop-color="#E0E0E0"/>
<stop offset="0.482292" stop-color="white"/>
<stop offset="1" stop-color="#EFEFEF"/>
</linearGradient>
<linearGradient id="paint1_linear_5_51" x1="180.5" y1="0" x2="180.5" y2="50.6364" gradientUnits="userSpaceOnUse">
<stop stop-color="#E0E0E0"/>
<stop offset="0.482292" stop-color="white"/>
<stop offset="1" stop-color="#EFEFEF"/>
</linearGradient>
<linearGradient id="paint2_linear_5_51" x1="180.5" y1="0" x2="180.5" y2="50.6364" gradientUnits="userSpaceOnUse">
<stop stop-color="#E0E0E0"/>
<stop offset="0.482292" stop-color="white"/>
<stop offset="1" stop-color="#EFEFEF"/>
</linearGradient>
<linearGradient id="paint3_linear_5_51" x1="180.5" y1="0" x2="180.5" y2="50.6364" gradientUnits="userSpaceOnUse">
<stop stop-color="#E0E0E0"/>
<stop offset="0.482292" stop-color="white"/>
<stop offset="1" stop-color="#EFEFEF"/>
</linearGradient>
<linearGradient id="paint4_linear_5_51" x1="180.5" y1="0" x2="180.5" y2="50.6364" gradientUnits="userSpaceOnUse">
<stop stop-color="#E0E0E0"/>
<stop offset="0.482292" stop-color="white"/>
<stop offset="1" stop-color="#EFEFEF"/>
</linearGradient>
<linearGradient id="paint5_linear_5_51" x1="180.5" y1="0" x2="180.5" y2="50.6364" gradientUnits="userSpaceOnUse">
<stop stop-color="#E0E0E0"/>
<stop offset="0.482292" stop-color="white"/>
<stop offset="1" stop-color="#EFEFEF"/>
</linearGradient>
<linearGradient id="paint6_linear_5_51" x1="180.5" y1="0" x2="180.5" y2="50.6364" gradientUnits="userSpaceOnUse">
<stop stop-color="#E0E0E0"/>
<stop offset="0.482292" stop-color="white"/>
<stop offset="1" stop-color="#EFEFEF"/>
</linearGradient>
<linearGradient id="paint7_linear_5_51" x1="180.5" y1="0" x2="180.5" y2="50.6364" gradientUnits="userSpaceOnUse">
<stop stop-color="#E0E0E0"/>
<stop offset="0.482292" stop-color="white"/>
<stop offset="1" stop-color="#EFEFEF"/>
</linearGradient>
<linearGradient id="paint8_linear_5_51" x1="180.5" y1="0" x2="180.5" y2="50.6364" gradientUnits="userSpaceOnUse">
<stop stop-color="#E0E0E0"/>
<stop offset="0.482292" stop-color="white"/>
<stop offset="1" stop-color="#EFEFEF"/>
</linearGradient>
<linearGradient id="paint9_linear_5_51" x1="323.829" y1="3.14648" x2="397" y2="41.6829" gradientUnits="userSpaceOnUse">
<stop offset="0.0708332" stop-color="#D1A10C"/>
<stop offset="0.3" stop-color="#F2B804"/>
<stop offset="0.695833" stop-color="#F8CE4E"/>
<stop offset="1" stop-color="#A37D0A"/>
</linearGradient>
</defs>
</svg>
